<svg width="55" height="55" viewBox="0 0 55 55" fill="none" xmlns="http://www.w3.org/2000/svg">
<path d="M5.98022 48.6861C5.81271 48.6974 5.65235 48.6977 5.5 48.6861H5.98022C9.47766 48.4504 16.0914 43.4131 18 41.0949C20 38.6657 40 2 42.5 2C45 2 39 37.2993 42.5 41.0949C46 44.8905 50.3333 48.6861 52.5 48.6861H5.98022Z" fill="#E9E9E9"/>
<path d="M5.5 48.6861C8.83333 48.9392 16 43.5241 18 41.0949C20 38.6657 40 2 42.5 2C45 2 39 37.2993 42.5 41.0949C46 44.8905 50.3333 48.6861 52.5 48.6861H5.5Z" stroke="black" stroke-width="3"/>
<path d="M1 54V46.0292L54 45.6496V54H1Z" fill="white" stroke="white"/>
</svg>
