<svg width="1440" height="320" xmlns="http://www.w3.org/2000/svg">

 <g>
  <title>background</title>
  <rect fill="none" id="canvas_background" height="602" width="802" y="-1" x="-1"/>
 </g>
 <g>
  <title>Layer 1</title>
  <path id="svg_1" d="m0,32l60,5.3c60,5.7 180,15.7 300,16c120,-0.3 240,-10.3 360,16c120,26.7 240,90.7 360,90.7c120,0 304.00112,72.00238 364.00112,40.00238l-4.00112,119.99762l-60,0c-60,0 -180,0 -300,0c-120,0 -240,0 -360,0c-120,0 -240,0 -360,0c-120,0 -240,0 -300,0l-60,0l0,-288z" fill="#1e1e1e"/>
 </g>
</svg>