<svg width="1440" height="320" xmlns="http://www.w3.org/2000/svg">

 <g>
  <title>background</title>
  <rect fill="none" id="canvas_background" height="602" width="802" y="-1" x="-1"/>
 </g>
 <g>
  <title>Layer 1</title>
  <path id="svg_1" d="m0,96l80,-10.7c80,-10.3 195.99999,-38.3 402,-7.3c206.00001,31 268,61 403.99999,64.7c136,3.7 156.00001,-17.025 240.00001,34.6375c84,51.6625 274.00001,12.6625 314.00001,12.6625l-0.00001,130l-80,0c-80,0 -240,0 -400,0c-160,0 -320,0 -480,0c-160,0 -320,0 -400,0l-80,0l0,-224z" fill="#1e1e1e"/>
 </g>
</svg>