<svg width="563" height="275" viewBox="0 0 563 275" fill="none" xmlns="http://www.w3.org/2000/svg">
  <path
    fill="#e0e0e0" 
    fill-opacity="1" 
    stroke="black" 
    stroke-width="5" 
    d="M33 119C33.8 135 29.5 139 16.5 146.5C3.49999 154 -0.833348 157.667 6.99999 159C15.1667 160.333 31 162 38 163.5C45 165 44.5 168.5 45 173.5C45.5 178.5 45.5 194 53.5 228C62.9118 268 107 270.68 135.5 271C194.833 271.667 329.6 272.6 394 271C474.5 269 424.5 271 492.5 267.5C546.9 264.7 559.833 227.667 559.5 209.5C559.833 200.167 560.3 165.8 559.5 103C558.7 40.2 530.5 19 493.5 14.5C472.5 11.9459 449 9.5 419 7.5C381.5 5 278.5 4.00002 234.5 3.50002C190.5 3.00002 124.5 10.5 74.5 21.5C34.5 30.3 28.8333 62.8333 31 78C31.3333 85 32.2 103 33 119Z" 
  />
</svg>
