<svg width="1440" height="320" xmlns="http://www.w3.org/2000/svg">

 <g>
  <title>background</title>
  <rect fill="none" id="canvas_background" height="602" width="802" y="-1" x="-1"/>
 </g>
 <g>
  <title>Layer 1</title>
  <path id="svg_1" d="m0,96l80,-10.7c80,-10.3 195.99999,-38.3 402,-7.3c206.00001,31 165.99999,57 301.99998,60.7c136,3.7 110.00001,-9.025 284.00001,36.6375c174.00001,45.6625 332.00002,14.6625 372.00002,14.6625l-0.00001,130l-80,0c-80,0 -240,0 -400,0c-160,0 -320,0 -480,0c-160,0 -320,0 -400,0l-80,0l0,-224z" fill="#1e1e1e"/>
 </g>
</svg>